solid Exported from Blender-3.4.1
facet normal -0.872018 -0.338982 0.353096
outer loop
vertex -40.109509 -101.241379 46.926262
vertex -41.855911 -112.637421 31.672802
vertex -34.685539 -121.574936 40.800751
endloop
endfacet
facet normal -0.471396 0.136724 -0.871259
outer loop
vertex -34.685539 -121.574936 40.800751
vertex -44.211227 -121.149445 46.021404
vertex -40.109509 -101.241379 46.926262
endloop
endfacet
facet normal -0.067704 0.199058 0.977646
outer loop
vertex 16.052746 -112.673729 55.188305
vertex 12.832266 -93.995224 51.162163
vertex -6.263893 -107.856575 52.662006
endloop
endfacet
facet normal 0.057565 -0.805107 0.590330
outer loop
vertex -22.665394 -119.703583 65.954918
vertex -38.059093 -119.592049 67.608131
vertex -30.765013 -133.491516 47.940434
endloop
endfacet
facet normal 0.960901 0.273182 0.045177
outer loop
vertex -19.056366 -96.164490 51.984505
vertex -18.187126 -100.692612 60.877331
vertex -13.206625 -116.542099 50.784019
endloop
endfacet
facet normal 0.259487 -0.947931 0.184642
outer loop
vertex 19.586906 -125.626297 2.676426
vertex -0.324764 -129.638031 10.063394
vertex -7.085729 -133.134827 1.612901
endloop
endfacet
facet normal -0.044827 -0.822237 -0.567377
outer loop
vertex 8.649356 -134.467499 16.353220
vertex -0.324764 -129.638031 10.063394
vertex 19.586906 -125.626297 2.676426
endloop
endfacet
facet normal 0.127684 0.991815 -0.000092
outer loop
vertex -4.473497 -85.116562 8.814728
vertex 20.365471 -88.314758 3.695717
vertex -14.705707 -83.800079 0.347364
endloop
endfacet
facet normal 0.165722 -0.982870 0.080644
outer loop
vertex 24.868422 -120.207603 47.386627
vertex 5.752080 -123.168701 50.581238
vertex -8.151975 -126.723648 35.826973
endloop
endfacet
facet normal -0.047569 -0.847058 0.529368
outer loop
vertex -13.206625 -116.542099 50.784019
vertex -34.685539 -121.574936 40.800751
vertex -24.210644 -128.679108 30.374435
endloop
endfacet
facet normal -0.163420 -0.257652 0.952318
outer loop
vertex -6.263893 -107.856575 52.662006
vertex 5.752080 -123.168701 50.581238
vertex 16.052746 -112.673729 55.188305
endloop
endfacet
facet normal -0.070125 -0.950471 0.302800
outer loop
vertex 20.039850 -131.706329 27.658382
vertex 19.294703 -128.531845 37.450405
vertex 8.649356 -134.467499 16.353220
endloop
endfacet
facet normal 0.460714 -0.339701 -0.819967
outer loop
vertex -13.206625 -116.542099 50.784019
vertex -30.765013 -133.491516 47.940434
vertex -34.685539 -121.574936 40.800751
endloop
endfacet
facet normal 0.187867 -0.959672 -0.209132
outer loop
vertex -8.151975 -126.723648 35.826973
vertex -24.210644 -128.679108 30.374435
vertex -17.366930 -124.790184 18.676594
endloop
endfacet
facet normal -0.082068 -0.836544 0.541719
outer loop
vertex -13.206625 -116.542099 50.784019
vertex -24.210644 -128.679108 30.374435
vertex -8.151975 -126.723648 35.826973
endloop
endfacet
facet normal -0.104758 -0.992939 -0.055655
outer loop
vertex -17.366930 -124.790184 18.676594
vertex -17.265089 -124.294113 9.634240
vertex -8.151975 -126.723648 35.826973
endloop
endfacet
facet normal 0.251867 -0.951642 -0.175900
outer loop
vertex -8.151975 -126.723648 35.826973
vertex -17.265089 -124.294113 9.634240
vertex -6.179829 -121.934052 12.738687
endloop
endfacet
facet normal 0.385725 -0.907370 -0.167022
outer loop
vertex 20.039850 -131.706329 27.658382
vertex 8.649356 -134.467499 16.353220
vertex 19.499239 -129.434250 14.066383
endloop
endfacet
facet normal -0.286559 -0.834260 0.471056
outer loop
vertex -13.206625 -116.542099 50.784019
vertex -8.151975 -126.723648 35.826973
vertex 5.752080 -123.168701 50.581238
endloop
endfacet
facet normal -0.049883 -0.172819 0.983690
outer loop
vertex 5.752080 -123.168701 50.581238
vertex -6.263893 -107.856575 52.662006
vertex -13.206625 -116.542099 50.784019
endloop
endfacet
facet normal 0.159843 -0.968333 0.191784
outer loop
vertex 19.294703 -128.531845 37.450405
vertex -4.031233 -133.728607 30.652630
vertex 8.649356 -134.467499 16.353220
endloop
endfacet
facet normal -0.324116 -0.915030 -0.240142
outer loop
vertex 8.649356 -134.467499 16.353220
vertex -4.031233 -133.728607 30.652630
vertex -0.324764 -129.638031 10.063394
endloop
endfacet
facet normal -0.088191 -0.738653 0.668292
outer loop
vertex 24.868422 -120.207603 47.386627
vertex -8.151975 -126.723648 35.826973
vertex 19.294703 -128.531845 37.450405
endloop
endfacet
facet normal 0.629562 -0.774918 -0.056149
outer loop
vertex 30.337893 -120.167183 7.076933
vertex 36.440201 -116.293053 22.031042
vertex 32.572979 -120.267395 33.520859
endloop
endfacet
facet normal -0.979037 0.199949 0.038830
outer loop
vertex -41.789112 -112.491814 62.509899
vertex -40.109509 -101.241379 46.926262
vertex -44.211227 -121.149445 46.021404
endloop
endfacet
facet normal 0.649637 -0.715901 0.255849
outer loop
vertex -22.665394 -119.703583 65.954918
vertex -30.765013 -133.491516 47.940434
vertex -13.206625 -116.542099 50.784019
endloop
endfacet
facet normal 0.952894 -0.109500 0.282847
outer loop
vertex 32.211834 -99.432823 42.803337
vertex 32.572979 -120.267395 33.520859
vertex 36.440201 -116.293053 22.031042
endloop
endfacet
facet normal 0.772955 -0.614958 -0.156103
outer loop
vertex 42.699394 -104.795418 7.729656
vertex 36.440201 -116.293053 22.031042
vertex 30.337893 -120.167183 7.076933
endloop
endfacet
facet normal 0.566216 -0.770473 0.292868
outer loop
vertex 32.572979 -120.267395 33.520859
vertex 19.294703 -128.531845 37.450405
vertex 20.039850 -131.706329 27.658382
endloop
endfacet
facet normal 0.318128 -0.696737 0.642924
outer loop
vertex -18.388178 -108.483246 67.864502
vertex 2.568644 -96.117928 70.895058
vertex 4.219820 -84.567665 82.595047
endloop
endfacet
facet normal 0.777614 -0.564245 -0.277387
outer loop
vertex -5.174592 -97.988251 83.558563
vertex -18.388178 -108.483246 67.864502
vertex 4.219820 -84.567665 82.595047
endloop
endfacet
facet normal 0.482902 -0.283032 -0.828673
outer loop
vertex 30.337893 -120.167183 7.076933
vertex 19.586906 -125.626297 2.676426
vertex 20.291523 -117.808632 0.416925
endloop
endfacet
facet normal 0.688272 -0.722891 -0.060913
outer loop
vertex 32.572979 -120.267395 33.520859
vertex 20.039850 -131.706329 27.658382
vertex 30.337893 -120.167183 7.076933
endloop
endfacet
facet normal 0.581568 -0.798288 -0.156575
outer loop
vertex 20.039850 -131.706329 27.658382
vertex 19.499239 -129.434250 14.066383
vertex 30.337893 -120.167183 7.076933
endloop
endfacet
facet normal 0.567041 -0.759681 0.318354
outer loop
vertex 24.868422 -120.207603 47.386627
vertex 19.294703 -128.531845 37.450405
vertex 32.572979 -120.267395 33.520859
endloop
endfacet
facet normal 0.450716 -0.602431 -0.658735
outer loop
vertex 2.568644 -96.117928 70.895058
vertex -18.388178 -108.483246 67.864502
vertex -18.187126 -100.692612 60.877331
endloop
endfacet
facet normal 0.852707 -0.062339 0.518656
outer loop
vertex -22.665394 -119.703583 65.954918
vertex -13.206625 -116.542099 50.784019
vertex -18.187126 -100.692612 60.877331
endloop
endfacet
facet normal 0.520971 -0.810728 -0.267036
outer loop
vertex 30.337893 -120.167183 7.076933
vertex 19.499239 -129.434250 14.066383
vertex 19.586906 -125.626297 2.676426
endloop
endfacet
facet normal 0.350367 -0.889092 -0.294547
outer loop
vertex 8.649356 -134.467499 16.353220
vertex 19.586906 -125.626297 2.676426
vertex 19.499239 -129.434250 14.066383
endloop
endfacet
facet normal -0.990305 -0.137646 -0.018705
outer loop
vertex -17.366930 -124.790184 18.676594
vertex -19.017736 -111.509552 8.346435
vertex -17.265089 -124.294113 9.634240
endloop
endfacet
facet normal -0.119278 0.254259 0.959753
outer loop
vertex -4.473497 -85.116562 8.814728
vertex -18.184650 -96.599586 10.152797
vertex -8.756468 -95.728439 11.093749
endloop
endfacet
facet normal 0.983829 0.030320 -0.176525
outer loop
vertex -25.483078 -101.797569 67.447632
vertex -27.049917 -95.900635 59.727966
vertex -24.408937 -65.708939 79.632675
endloop
endfacet
facet normal -0.242332 -0.969527 0.035963
outer loop
vertex -17.265089 -124.294113 9.634240
vertex -29.859447 -121.423691 2.153249
vertex -12.485538 -125.823975 0.597753
endloop
endfacet
facet normal 0.468289 0.772524 0.428851
outer loop
vertex 29.445942 -91.217224 29.327110
vertex 10.828944 -80.892937 31.058174
vertex 17.903744 -89.025520 37.982639
endloop
endfacet
facet normal 0.709164 0.014204 -0.704900
outer loop
vertex 33.473000 -97.961746 16.688168
vertex 18.111790 -97.049538 1.252390
vertex 20.365471 -88.314758 3.695717
endloop
endfacet
facet normal 0.907049 0.415626 0.067216
outer loop
vertex 32.211834 -99.432823 42.803337
vertex 33.473000 -97.961746 16.688168
vertex 29.445942 -91.217224 29.327110
endloop
endfacet
facet normal -0.866601 0.444226 0.227302
outer loop
vertex -34.122551 -99.367180 66.089035
vertex -40.109509 -101.241379 46.926262
vertex -41.789112 -112.491814 62.509899
endloop
endfacet
facet normal 0.683905 0.711420 -0.161727
outer loop
vertex 29.445942 -91.217224 29.327110
vertex 33.473000 -97.961746 16.688168
vertex 20.365471 -88.314758 3.695717
endloop
endfacet
facet normal 0.443171 0.261249 0.857525
outer loop
vertex 16.052746 -112.673729 55.188305
vertex 32.211834 -99.432823 42.803337
vertex 12.832266 -93.995224 51.162163
endloop
endfacet
facet normal 0.856528 -0.197576 0.476785
outer loop
vertex 24.868422 -120.207603 47.386627
vertex 32.572979 -120.267395 33.520859
vertex 32.211834 -99.432823 42.803337
endloop
endfacet
facet normal 0.982754 0.175793 0.057362
outer loop
vertex 32.211834 -99.432823 42.803337
vertex 36.440201 -116.293053 22.031042
vertex 33.473000 -97.961746 16.688168
endloop
endfacet
facet normal 0.911994 -0.403305 0.074908
outer loop
vertex 42.859085 -102.167198 19.935747
vertex 36.440201 -116.293053 22.031042
vertex 42.699394 -104.795418 7.729656
endloop
endfacet
facet normal 0.906755 -0.294259 -0.302004
outer loop
vertex -18.187126 -100.692612 60.877331
vertex -18.388178 -108.483246 67.864502
vertex -22.665394 -119.703583 65.954918
endloop
endfacet
facet normal -0.812550 0.050659 -0.580687
outer loop
vertex -41.855911 -112.637421 31.672802
vertex -38.129204 -97.219437 27.803137
vertex -32.111134 -115.373062 17.798382
endloop
endfacet
facet normal -0.219617 0.240055 0.945591
outer loop
vertex 36.440201 -116.293053 22.031042
vertex 42.859085 -102.167198 19.935747
vertex 33.473000 -97.961746 16.688168
endloop
endfacet
facet normal -0.799218 0.369732 -0.473866
outer loop
vertex -25.639734 -88.516251 29.033430
vertex -18.184650 -96.599586 10.152797
vertex -22.733030 -103.806900 12.200555
endloop
endfacet
facet normal -0.127368 0.098918 0.986911
outer loop
vertex -38.059093 -119.592049 67.608131
vertex -25.483078 -101.797569 67.447632
vertex -34.122551 -99.367180 66.089035
endloop
endfacet
facet normal -0.030140 0.030312 0.999086
outer loop
vertex -38.059093 -119.592049 67.608131
vertex -18.388178 -108.483246 67.864502
vertex -25.483078 -101.797569 67.447632
endloop
endfacet
facet normal 0.103047 -0.204933 0.973336
outer loop
vertex -22.665394 -119.703583 65.954918
vertex -18.388178 -108.483246 67.864502
vertex -38.059093 -119.592049 67.608131
endloop
endfacet
facet normal -0.654877 0.182547 0.733357
outer loop
vertex -41.789112 -112.491814 62.509899
vertex -38.059093 -119.592049 67.608131
vertex -34.122551 -99.367180 66.089035
endloop
endfacet
facet normal 0.635189 -0.054555 0.770428
outer loop
vertex 16.052746 -112.673729 55.188305
vertex 24.868422 -120.207603 47.386627
vertex 32.211834 -99.432823 42.803337
endloop
endfacet
facet normal -0.087052 -0.624522 0.776141
outer loop
vertex -4.031233 -133.728607 30.652630
vertex 19.294703 -128.531845 37.450405
vertex -8.151975 -126.723648 35.826973
endloop
endfacet
facet normal 0.525036 -0.286247 0.801498
outer loop
vertex -24.408937 -65.708939 79.632675
vertex -32.807320 -74.606812 81.956406
vertex -25.483078 -101.797569 67.447632
endloop
endfacet
facet normal -0.142599 -0.098953 0.984822
outer loop
vertex -13.206625 -116.542099 50.784019
vertex -6.263893 -107.856575 52.662006
vertex -19.056366 -96.164490 51.984505
endloop
endfacet
facet normal 0.220402 -0.565273 0.794915
outer loop
vertex 5.752080 -123.168701 50.581238
vertex 24.868422 -120.207603 47.386627
vertex 16.052746 -112.673729 55.188305
endloop
endfacet
facet normal 0.883730 0.201252 -0.422516
outer loop
vertex -29.565493 -73.005722 65.371696
vertex -24.408937 -65.708939 79.632675
vertex -27.049917 -95.900635 59.727966
endloop
endfacet
facet normal -0.748443 -0.593810 -0.295336
outer loop
vertex -7.085729 -133.134827 1.612901
vertex -17.265089 -124.294113 9.634240
vertex -12.485538 -125.823975 0.597753
endloop
endfacet
facet normal -0.271630 -0.508998 0.816785
outer loop
vertex -25.483078 -101.797569 67.447632
vertex -32.807320 -74.606812 81.956406
vertex -34.122551 -99.367180 66.089035
endloop
endfacet
facet normal -0.490110 -0.594011 0.637921
outer loop
vertex -7.085729 -133.134827 1.612901
vertex -0.324764 -129.638031 10.063394
vertex -6.179829 -121.934052 12.738687
endloop
endfacet
facet normal -0.050443 0.932425 -0.357825
outer loop
vertex -18.184650 -96.599586 10.152797
vertex -9.947424 -87.575073 32.507839
vertex -8.756468 -95.728439 11.093749
endloop
endfacet
facet normal -0.049585 -0.701839 0.710608
outer loop
vertex -6.179829 -121.934052 12.738687
vertex -17.265089 -124.294113 9.634240
vertex -7.085729 -133.134827 1.612901
endloop
endfacet
facet normal -0.898123 -0.408992 -0.161560
outer loop
vertex -4.031233 -133.728607 30.652630
vertex -8.151975 -126.723648 35.826973
vertex -6.179829 -121.934052 12.738687
endloop
endfacet
facet normal -0.810678 -0.528948 -0.251027
outer loop
vertex -0.324764 -129.638031 10.063394
vertex -4.031233 -133.728607 30.652630
vertex -6.179829 -121.934052 12.738687
endloop
endfacet
facet normal -0.674580 -0.697215 0.242554
outer loop
vertex -30.765013 -133.491516 47.940434
vertex -38.059093 -119.592049 67.608131
vertex -44.211227 -121.149445 46.021404
endloop
endfacet
facet normal -0.682431 -0.562638 0.466611
outer loop
vertex -19.017736 -111.509552 8.346435
vertex -22.733030 -103.806900 12.200555
vertex -32.852932 -101.467415 0.220907
endloop
endfacet
facet normal -0.490510 -0.474978 0.730613
outer loop
vertex -18.388178 -108.483246 67.864502
vertex -5.174592 -97.988251 83.558563
vertex -25.483078 -101.797569 67.447632
endloop
endfacet
facet normal -0.668863 -0.721104 -0.180642
outer loop
vertex -34.685539 -121.574936 40.800751
vertex -41.855911 -112.637421 31.672802
vertex -24.210644 -128.679108 30.374435
endloop
endfacet
facet normal -0.735146 0.673326 -0.078697
outer loop
vertex -32.807320 -74.606812 81.956406
vertex -24.408937 -65.708939 79.632675
vertex -29.565493 -73.005722 65.371696
endloop
endfacet
facet normal -0.917774 -0.279833 0.281751
outer loop
vertex -38.059093 -119.592049 67.608131
vertex -41.789112 -112.491814 62.509899
vertex -44.211227 -121.149445 46.021404
endloop
endfacet
facet normal -0.222396 0.402469 0.888008
outer loop
vertex -6.263893 -107.856575 52.662006
vertex 12.832266 -93.995224 51.162163
vertex -6.945823 -90.768478 44.746426
endloop
endfacet
facet normal -0.457137 0.852154 -0.254674
outer loop
vertex -6.712561 -79.906357 30.267488
vertex 0.836627 -81.036011 12.936889
vertex -4.473497 -85.116562 8.814728
endloop
endfacet
facet normal -0.971125 0.163140 -0.174077
outer loop
vertex -34.122551 -99.367180 66.089035
vertex -32.807320 -74.606812 81.956406
vertex -29.565493 -73.005722 65.371696
endloop
endfacet
facet normal -0.507726 0.017160 0.861348
outer loop
vertex -17.265089 -124.294113 9.634240
vertex -19.017736 -111.509552 8.346435
vertex -29.859447 -121.423691 2.153249
endloop
endfacet
facet normal -0.924178 0.337702 -0.178475
outer loop
vertex -9.947424 -87.575073 32.507839
vertex -6.712561 -79.906357 30.267488
vertex -4.473497 -85.116562 8.814728
endloop
endfacet
facet normal -0.925089 0.334931 -0.178974
outer loop
vertex -8.756468 -95.728439 11.093749
vertex -9.947424 -87.575073 32.507839
vertex -4.473497 -85.116562 8.814728
endloop
endfacet
facet normal 0.449100 0.800893 0.396080
outer loop
vertex 29.445942 -91.217224 29.327110
vertex 17.903744 -89.025520 37.982639
vertex 32.211834 -99.432823 42.803337
endloop
endfacet
facet normal -0.692047 0.100180 -0.714867
outer loop
vertex -34.122551 -99.367180 66.089035
vertex -29.565493 -73.005722 65.371696
vertex -27.049917 -95.900635 59.727966
endloop
endfacet
facet normal -0.662088 -0.333994 -0.670886
outer loop
vertex -14.705707 -83.800079 0.347364
vertex -11.893804 -90.932816 1.123294
vertex -18.184650 -96.599586 10.152797
endloop
endfacet
facet normal -0.453422 0.616418 0.643768
outer loop
vertex -4.473497 -85.116562 8.814728
vertex -14.705707 -83.800079 0.347364
vertex -18.184650 -96.599586 10.152797
endloop
endfacet
facet normal -0.444725 0.864850 0.232925
outer loop
vertex -32.852932 -101.467415 0.220907
vertex -18.184650 -96.599586 10.152797
vertex -11.893804 -90.932816 1.123294
endloop
endfacet
facet normal -0.601537 0.467577 0.647708
outer loop
vertex -5.174592 -97.988251 83.558563
vertex 4.219820 -84.567665 82.595047
vertex -25.483078 -101.797569 67.447632
endloop
endfacet
facet normal 0.188360 0.685488 -0.703298
outer loop
vertex 4.219820 -84.567665 82.595047
vertex 2.568644 -96.117928 70.895058
vertex -18.187126 -100.692612 60.877331
endloop
endfacet
facet normal -0.973601 0.221731 -0.054188
outer loop
vertex -40.109509 -101.241379 46.926262
vertex -38.129204 -97.219437 27.803137
vertex -41.855911 -112.637421 31.672802
endloop
endfacet
facet normal 0.352342 0.776837 0.521900
outer loop
vertex -18.187126 -100.692612 60.877331
vertex -27.049917 -95.900635 59.727966
vertex -25.483078 -101.797569 67.447632
endloop
endfacet
facet normal 0.002248 0.649419 0.760428
outer loop
vertex 10.828944 -80.892937 31.058174
vertex -6.712561 -79.906357 30.267488
vertex 17.903744 -89.025520 37.982639
endloop
endfacet
facet normal 0.417447 0.785519 0.456835
outer loop
vertex 17.903744 -89.025520 37.982639
vertex 12.832266 -93.995224 51.162163
vertex 32.211834 -99.432823 42.803337
endloop
endfacet
facet normal 0.399963 0.831964 0.384532
outer loop
vertex -19.056366 -96.164490 51.984505
vertex -27.049917 -95.900635 59.727966
vertex -18.187126 -100.692612 60.877331
endloop
endfacet
facet normal -0.192079 0.913197 0.359411
outer loop
vertex -25.639734 -88.516251 29.033430
vertex -19.056366 -96.164490 51.984505
vertex -6.945823 -90.768478 44.746426
endloop
endfacet
facet normal -0.164331 0.339846 0.926013
outer loop
vertex 17.903744 -89.025520 37.982639
vertex -6.712561 -79.906357 30.267488
vertex -9.947424 -87.575073 32.507839
endloop
endfacet
facet normal 0.327634 0.407851 0.852240
outer loop
vertex -6.945823 -90.768478 44.746426
vertex -19.056366 -96.164490 51.984505
vertex -6.263893 -107.856575 52.662006
endloop
endfacet
facet normal -0.301899 0.875104 0.378218
outer loop
vertex -40.109509 -101.241379 46.926262
vertex -19.056366 -96.164490 51.984505
vertex -25.639734 -88.516251 29.033430
endloop
endfacet
facet normal -0.179098 0.959472 -0.217573
outer loop
vertex -27.049917 -95.900635 59.727966
vertex -19.056366 -96.164490 51.984505
vertex -40.109509 -101.241379 46.926262
endloop
endfacet
facet normal 0.456043 0.868771 -0.193031
outer loop
vertex 42.859085 -102.167198 19.935747
vertex 42.699394 -104.795418 7.729656
vertex 33.473000 -97.961746 16.688168
endloop
endfacet
facet normal -0.411024 0.910776 0.039337
outer loop
vertex -34.122551 -99.367180 66.089035
vertex -27.049917 -95.900635 59.727966
vertex -40.109509 -101.241379 46.926262
endloop
endfacet
facet normal 0.029552 0.923060 -0.383519
outer loop
vertex -25.639734 -88.516251 29.033430
vertex -9.947424 -87.575073 32.507839
vertex -18.184650 -96.599586 10.152797
endloop
endfacet
facet normal -0.575526 0.810241 0.110809
outer loop
vertex -40.109509 -101.241379 46.926262
vertex -25.639734 -88.516251 29.033430
vertex -38.129204 -97.219437 27.803137
endloop
endfacet
facet normal 0.358233 0.882636 -0.304340
outer loop
vertex 18.111790 -97.049538 1.252390
vertex 33.473000 -97.961746 16.688168
vertex 42.699394 -104.795418 7.729656
endloop
endfacet
facet normal 0.478750 0.875115 -0.070511
outer loop
vertex 10.828944 -80.892937 31.058174
vertex 29.445942 -91.217224 29.327110
vertex 20.365471 -88.314758 3.695717
endloop
endfacet
facet normal -0.387125 0.648232 -0.655690
outer loop
vertex -25.639734 -88.516251 29.033430
vertex -22.733030 -103.806900 12.200555
vertex -38.129204 -97.219437 27.803137
endloop
endfacet
facet normal 0.277215 0.947335 -0.160339
outer loop
vertex 0.836627 -81.036011 12.936889
vertex 10.828944 -80.892937 31.058174
vertex 20.365471 -88.314758 3.695717
endloop
endfacet
facet normal -0.043865 0.737678 -0.673726
outer loop
vertex -4.473497 -85.116562 8.814728
vertex 0.836627 -81.036011 12.936889
vertex 20.365471 -88.314758 3.695717
endloop
endfacet
facet normal -0.376767 0.886290 -0.269328
outer loop
vertex -25.483078 -101.797569 67.447632
vertex 4.219820 -84.567665 82.595047
vertex -18.187126 -100.692612 60.877331
endloop
endfacet
facet normal -0.005930 -0.050168 -0.998723
outer loop
vertex 6.876325 -108.296738 1.884073
vertex -11.893804 -90.932816 1.123294
vertex 18.111790 -97.049538 1.252390
endloop
endfacet
facet normal -0.019223 0.937935 0.346278
outer loop
vertex -9.947424 -87.575073 32.507839
vertex 12.832266 -93.995224 51.162163
vertex 17.903744 -89.025520 37.982639
endloop
endfacet
facet normal -0.118691 0.953265 0.277845
outer loop
vertex -25.639734 -88.516251 29.033430
vertex -6.945823 -90.768478 44.746426
vertex -9.947424 -87.575073 32.507839
endloop
endfacet
facet normal -0.587126 0.541486 0.601727
outer loop
vertex -22.733030 -103.806900 12.200555
vertex -18.184650 -96.599586 10.152797
vertex -32.852932 -101.467415 0.220907
endloop
endfacet
facet normal 0.057898 0.997529 -0.039802
outer loop
vertex -6.712561 -79.906357 30.267488
vertex 10.828944 -80.892937 31.058174
vertex 0.836627 -81.036011 12.936889
endloop
endfacet
facet normal -0.501827 0.008475 0.864926
outer loop
vertex -19.017736 -111.509552 8.346435
vertex -32.852932 -101.467415 0.220907
vertex -29.859447 -121.423691 2.153249
endloop
endfacet
facet normal 0.170690 -0.010738 -0.985266
outer loop
vertex -7.085729 -133.134827 1.612901
vertex -12.485538 -125.823975 0.597753
vertex -7.689310 -114.698029 1.307409
endloop
endfacet
facet normal 0.463599 -0.338034 -0.819030
outer loop
vertex 20.291523 -117.808632 0.416925
vertex 42.699394 -104.795418 7.729656
vertex 30.337893 -120.167183 7.076933
endloop
endfacet
facet normal 0.273961 0.067377 -0.959378
outer loop
vertex 20.291523 -117.808632 0.416925
vertex 18.111790 -97.049538 1.252390
vertex 42.699394 -104.795418 7.729656
endloop
endfacet
facet normal -0.416060 -0.564168 -0.713168
outer loop
vertex -44.211227 -121.149445 46.021404
vertex -34.685539 -121.574936 40.800751
vertex -30.765013 -133.491516 47.940434
endloop
endfacet
facet normal -0.649973 -0.688993 -0.320663
outer loop
vertex -41.855911 -112.637421 31.672802
vertex -32.111134 -115.373062 17.798382
vertex -24.210644 -128.679108 30.374435
endloop
endfacet
facet normal -0.660172 0.182670 -0.728563
outer loop
vertex -22.733030 -103.806900 12.200555
vertex -32.111134 -115.373062 17.798382
vertex -38.129204 -97.219437 27.803137
endloop
endfacet
facet normal 0.082652 0.969058 0.232583
outer loop
vertex 12.832266 -93.995224 51.162163
vertex -9.947424 -87.575073 32.507839
vertex -6.945823 -90.768478 44.746426
endloop
endfacet
facet normal 0.118302 -0.285537 -0.951038
outer loop
vertex -7.085729 -133.134827 1.612901
vertex 20.291523 -117.808632 0.416925
vertex 19.586906 -125.626297 2.676426
endloop
endfacet
facet normal -0.442914 -0.740587 -0.505331
outer loop
vertex -24.210644 -128.679108 30.374435
vertex -32.111134 -115.373062 17.798382
vertex -17.366930 -124.790184 18.676594
endloop
endfacet
facet normal -0.153315 -0.327005 -0.932503
outer loop
vertex -32.111134 -115.373062 17.798382
vertex -22.733030 -103.806900 12.200555
vertex -17.366930 -124.790184 18.676594
endloop
endfacet
facet normal 0.039862 -0.000689 -0.999205
outer loop
vertex -7.689310 -114.698029 1.307409
vertex -11.893804 -90.932816 1.123294
vertex 6.876325 -108.296738 1.884073
endloop
endfacet
facet normal -0.017260 0.128597 -0.991547
outer loop
vertex -7.689310 -114.698029 1.307409
vertex 6.876325 -108.296738 1.884073
vertex 20.291523 -117.808632 0.416925
endloop
endfacet
facet normal -0.116979 -0.113086 -0.986675
outer loop
vertex -12.485538 -125.823975 0.597753
vertex -29.859447 -121.423691 2.153249
vertex -32.852932 -101.467415 0.220907
endloop
endfacet
facet normal 0.043075 -0.000119 -0.999072
outer loop
vertex -32.852932 -101.467415 0.220907
vertex -11.893804 -90.932816 1.123294
vertex -7.689310 -114.698029 1.307409
endloop
endfacet
facet normal 0.056232 0.255475 -0.965179
outer loop
vertex -11.893804 -90.932816 1.123294
vertex 20.365471 -88.314758 3.695717
vertex 18.111790 -97.049538 1.252390
endloop
endfacet
facet normal 0.085273 -0.074468 -0.993571
outer loop
vertex -14.705707 -83.800079 0.347364
vertex 20.365471 -88.314758 3.695717
vertex -11.893804 -90.932816 1.123294
endloop
endfacet
facet normal 0.062375 0.036728 -0.997377
outer loop
vertex -32.852932 -101.467415 0.220907
vertex -7.689310 -114.698029 1.307409
vertex -12.485538 -125.823975 0.597753
endloop
endfacet
facet normal -0.086958 0.030943 -0.995731
outer loop
vertex 20.291523 -117.808632 0.416925
vertex 6.876325 -108.296738 1.884073
vertex 18.111790 -97.049538 1.252390
endloop
endfacet
facet normal -0.914568 -0.312949 -0.256180
outer loop
vertex -17.366930 -124.790184 18.676594
vertex -22.733030 -103.806900 12.200555
vertex -19.017736 -111.509552 8.346435
endloop
endfacet
facet normal -0.033765 -0.017663 -0.999274
outer loop
vertex 20.291523 -117.808632 0.416925
vertex -7.085729 -133.134827 1.612901
vertex -7.689310 -114.698029 1.307409
endloop
endfacet
facet normal 0.882811 0.333905 -0.330382
outer loop
vertex -39.286228 -101.805084 46.859554
vertex -34.178326 -120.847496 41.262882
vertex -40.910412 -112.363380 31.848692
endloop
endfacet
facet normal 0.485056 -0.124296 0.865604
outer loop
vertex -34.178326 -120.847496 41.262882
vertex -39.286228 -101.805084 46.859554
vertex -43.332455 -120.849144 46.392315
endloop
endfacet
facet normal 0.072400 -0.196382 -0.977851
outer loop
vertex 15.811295 -112.549461 54.225883
vertex -6.204885 -107.917747 51.665627
vertex 12.692790 -94.620483 50.394314
endloop
endfacet
facet normal -0.064736 0.800295 -0.596102
outer loop
vertex -23.155926 -119.180840 65.257690
vertex -30.810917 -132.521408 48.178699
vertex -37.588619 -119.177971 66.828903
endloop
endfacet
facet normal -0.954760 -0.280155 -0.099733
outer loop
vertex -19.249266 -97.014458 51.494251
vertex -13.552730 -115.923973 50.078243
vertex -18.975439 -101.305832 60.927578
endloop
endfacet
facet normal -0.252880 0.945671 -0.204350
outer loop
vertex 19.242226 -124.980484 3.357686
vertex -6.852373 -132.248825 2.013601
vertex -0.012796 -128.688721 10.024751
endloop
endfacet
facet normal 0.035012 0.827008 0.561099
outer loop
vertex 8.606801 -133.491135 16.565182
vertex 19.242226 -124.980484 3.357686
vertex -0.012796 -128.688721 10.024751
endloop
endfacet
facet normal -0.125957 -0.991250 -0.039482
outer loop
vertex -4.085649 -86.038284 8.814024
vertex -14.117148 -84.445740 0.833908
vertex 19.893946 -88.907494 4.348652
endloop
endfacet
facet normal -0.158730 0.983931 -0.081759
outer loop
vertex 24.324814 -119.668633 46.743195
vertex -7.939913 -125.809464 35.481579
vertex 5.753705 -122.398643 49.943272
endloop
endfacet
facet normal 0.019225 0.853072 -0.521438
outer loop
vertex -13.552730 -115.923973 50.078243
vertex -23.950367 -127.714096 30.406227
vertex -34.178326 -120.847496 41.262882
endloop
endfacet
facet normal 0.163293 0.248413 -0.954791
outer loop
vertex -6.204885 -107.917747 51.665627
vertex 15.811295 -112.549461 54.225883
vertex 5.753705 -122.398643 49.943272
endloop
endfacet
facet normal 0.071387 0.949106 -0.306761
outer loop
vertex 19.684406 -130.780563 27.529488
vertex 8.606801 -133.491135 16.565182
vertex 19.062605 -127.677597 36.985241
endloop
endfacet
facet normal -0.438057 0.361288 0.823151
outer loop
vertex -13.552730 -115.923973 50.078243
vertex -34.178326 -120.847496 41.262882
vertex -30.810917 -132.521408 48.178699
endloop
endfacet
facet normal -0.180922 0.960777 0.210178
outer loop
vertex -7.939913 -125.809464 35.481579
vertex -17.014002 -123.913467 19.003414
vertex -23.950367 -127.714096 30.406227
endloop
endfacet
facet normal 0.071538 0.838421 -0.540307
outer loop
vertex -13.552730 -115.923973 50.078243
vertex -7.939913 -125.809464 35.481579
vertex -23.950367 -127.714096 30.406227
endloop
endfacet
facet normal 0.126274 0.990997 0.044490
outer loop
vertex -17.014002 -123.913467 19.003414
vertex -7.939913 -125.809464 35.481579
vertex -16.711914 -123.517776 9.332097
endloop
endfacet
facet normal -0.269793 0.947157 0.173511
outer loop
vertex -7.939913 -125.809464 35.481579
vertex -5.828773 -121.011978 12.575763
vertex -16.711914 -123.517776 9.332097
endloop
endfacet
facet normal -0.389545 0.905223 0.169783
outer loop
vertex 19.684406 -130.780563 27.529488
vertex 19.034800 -128.575790 14.283993
vertex 8.606801 -133.491135 16.565182
endloop
endfacet
facet normal 0.278978 0.841512 -0.462633
outer loop
vertex -13.552730 -115.923973 50.078243
vertex 5.753705 -122.398643 49.943272
vertex -7.939913 -125.809464 35.481579
endloop
endfacet
facet normal 0.044905 0.154474 -0.986976
outer loop
vertex 5.753705 -122.398643 49.943272
vertex -13.552730 -115.923973 50.078243
vertex -6.204885 -107.917747 51.665627
endloop
endfacet
facet normal -0.166867 0.967499 -0.190003
outer loop
vertex 19.062605 -127.677597 36.985241
vertex 8.606801 -133.491135 16.565182
vertex -3.573597 -132.872528 30.412403
endloop
endfacet
facet normal 0.323984 0.914015 0.244152
outer loop
vertex 8.606801 -133.491135 16.565182
vertex -0.012796 -128.688721 10.024751
vertex -3.573597 -132.872528 30.412403
endloop
endfacet
facet normal 0.088367 0.746057 -0.659993
outer loop
vertex 24.324814 -119.668633 46.743195
vertex 19.062605 -127.677597 36.985241
vertex -7.939913 -125.809464 35.481579
endloop
endfacet
facet normal -0.629869 0.774673 0.056096
outer loop
vertex 29.709293 -119.556557 7.558598
vertex 31.748693 -119.760132 33.269398
vertex 35.555954 -115.841980 21.910021
endloop
endfacet
facet normal 0.977428 -0.206585 -0.044233
outer loop
vertex -40.879879 -112.610718 62.110947
vertex -43.332455 -120.849144 46.392315
vertex -39.286228 -101.805084 46.859554
endloop
endfacet
facet normal -0.653969 0.709922 -0.261409
outer loop
vertex -23.155926 -119.180840 65.257690
vertex -13.552730 -115.923973 50.078243
vertex -30.810917 -132.521408 48.178699
endloop
endfacet
facet normal -0.953204 0.111427 -0.281046
outer loop
vertex 31.424765 -99.776405 42.291012
vertex 35.555954 -115.841980 21.910021
vertex 31.748693 -119.760132 33.269398
endloop
endfacet
facet normal -0.763405 0.628667 0.148288
outer loop
vertex 41.860439 -104.963562 8.247225
vertex 29.709293 -119.556557 7.558598
vertex 35.555954 -115.841980 21.910021
endloop
endfacet
facet normal -0.566408 0.771284 -0.290349
outer loop
vertex 31.748693 -119.760132 33.269398
vertex 19.684406 -130.780563 27.529488
vertex 19.062605 -127.677597 36.985241
endloop
endfacet
facet normal -0.290503 0.709170 -0.642406
outer loop
vertex -18.914293 -107.782013 67.383377
vertex 3.616008 -85.205833 82.117393
vertex 1.639785 -95.905975 71.198860
endloop
endfacet
facet normal -0.765442 0.573873 0.291149
outer loop
vertex -5.440557 -97.574951 82.687675
vertex 3.616008 -85.205833 82.117393
vertex -18.914293 -107.782013 67.383377
endloop
endfacet
facet normal -0.478839 0.279495 0.832223
outer loop
vertex 29.709293 -119.556557 7.558598
vertex 20.070738 -117.685608 1.384457
vertex 19.242226 -124.980484 3.357686
endloop
endfacet
facet normal -0.688715 0.722516 0.060350
outer loop
vertex 31.748693 -119.760132 33.269398
vertex 29.709293 -119.556557 7.558598
vertex 19.684406 -130.780563 27.529488
endloop
endfacet
facet normal -0.575497 0.801665 0.161665
outer loop
vertex 19.684406 -130.780563 27.529488
vertex 29.709293 -119.556557 7.558598
vertex 19.034800 -128.575790 14.283993
endloop
endfacet
facet normal -0.567252 0.759795 -0.317707
outer loop
vertex 24.324814 -119.668633 46.743195
vertex 31.748693 -119.760132 33.269398
vertex 19.062605 -127.677597 36.985241
endloop
endfacet
facet normal -0.474045 0.619376 0.625823
outer loop
vertex 1.639785 -95.905975 71.198860
vertex -18.975439 -101.305832 60.927578
vertex -18.914293 -107.782013 67.383377
endloop
endfacet
facet normal -0.849805 0.072267 -0.522119
outer loop
vertex -23.155926 -119.180840 65.257690
vertex -18.975439 -101.305832 60.927578
vertex -13.552730 -115.923973 50.078243
endloop
endfacet
facet normal -0.523985 0.811957 0.257227
outer loop
vertex 29.709293 -119.556557 7.558598
vertex 19.242226 -124.980484 3.357686
vertex 19.034800 -128.575790 14.283993
endloop
endfacet
facet normal -0.356690 0.889404 0.285888
outer loop
vertex 8.606801 -133.491135 16.565182
vertex 19.034800 -128.575790 14.283993
vertex 19.242226 -124.980484 3.357686
endloop
endfacet
facet normal 0.992139 0.119886 0.035895
outer loop
vertex -17.014002 -123.913467 19.003414
vertex -16.711914 -123.517776 9.332097
vertex -18.143408 -111.252739 7.934616
endloop
endfacet
facet normal 0.092782 -0.215683 -0.972046
outer loop
vertex -4.085649 -86.038284 8.814024
vertex -8.239281 -96.508087 10.740649
vertex -17.615469 -97.414955 10.046913
endloop
endfacet
facet normal -0.976604 -0.055296 0.207814
outer loop
vertex -25.502279 -102.037552 66.477043
vertex -24.798664 -66.537033 79.229721
vertex -27.187138 -96.869438 59.934357
endloop
endfacet
facet normal 0.252168 0.963858 -0.085957
outer loop
vertex -16.711914 -123.517776 9.332097
vertex -12.212531 -125.396973 1.459809
vertex -29.003586 -120.928795 2.303510
endloop
endfacet
facet normal -0.466399 -0.771281 -0.433125
outer loop
vertex 28.760714 -91.935585 29.207005
vertex 17.613287 -89.850594 37.497986
vertex 10.605191 -81.808083 30.722858
endloop
endfacet
facet normal -0.698264 -0.014315 0.715697
outer loop
vertex 32.779659 -98.681412 16.725018
vertex 19.893946 -88.907494 4.348652
vertex 17.871058 -97.214394 2.208879
endloop
endfacet
facet normal -0.906115 -0.417864 -0.065918
outer loop
vertex 31.424765 -99.776405 42.291012
vertex 28.760714 -91.935585 29.207005
vertex 32.779659 -98.681412 16.725018
endloop
endfacet
facet normal 0.867057 -0.444756 -0.224509
outer loop
vertex -33.329018 -99.618584 65.534866
vertex -40.879879 -112.610718 62.110947
vertex -39.286228 -101.805084 46.859554
endloop
endfacet
facet normal -0.689419 -0.706505 0.159848
outer loop
vertex 28.760714 -91.935585 29.207005
vertex 19.893946 -88.907494 4.348652
vertex 32.779659 -98.681412 16.725018
endloop
endfacet
facet normal -0.442820 -0.260378 -0.857971
outer loop
vertex 15.811295 -112.549461 54.225883
vertex 12.692790 -94.620483 50.394314
vertex 31.424765 -99.776405 42.291012
endloop
endfacet
facet normal -0.857575 0.200027 -0.473871
outer loop
vertex 24.324814 -119.668633 46.743195
vertex 31.424765 -99.776405 42.291012
vertex 31.748693 -119.760132 33.269398
endloop
endfacet
facet normal -0.982409 -0.176959 -0.059643
outer loop
vertex 31.424765 -99.776405 42.291012
vertex 32.779659 -98.681412 16.725018
vertex 35.555954 -115.841980 21.910021
endloop
endfacet
facet normal -0.898812 0.432669 -0.070248
outer loop
vertex 42.142151 -102.572670 19.368658
vertex 41.860439 -104.963562 8.247225
vertex 35.555954 -115.841980 21.910021
endloop
endfacet
facet normal -0.912377 0.284645 0.294186
outer loop
vertex -18.975439 -101.305832 60.927578
vertex -23.155926 -119.180840 65.257690
vertex -18.914293 -107.782013 67.383377
endloop
endfacet
facet normal 0.811444 -0.050000 0.582287
outer loop
vertex -40.910412 -112.363380 31.848692
vertex -31.508116 -115.027512 18.517385
vertex -37.360176 -97.752510 28.155891
endloop
endfacet
facet normal 0.159986 -0.261699 -0.951797
outer loop
vertex 35.555954 -115.841980 21.910021
vertex 32.779659 -98.681412 16.725018
vertex 42.142151 -102.572670 19.368658
endloop
endfacet
facet normal 0.811786 -0.345813 0.470550
outer loop
vertex -25.311680 -89.449768 29.178051
vertex -21.766552 -103.907768 12.436656
vertex -17.615469 -97.414955 10.046913
endloop
endfacet
facet normal 0.092878 -0.085855 -0.991969
outer loop
vertex -37.588619 -119.177971 66.828903
vertex -33.329018 -99.618584 65.534866
vertex -25.502279 -102.037552 66.477043
endloop
endfacet
facet normal 0.073712 -0.072395 -0.994648
outer loop
vertex -37.588619 -119.177971 66.828903
vertex -25.502279 -102.037552 66.477043
vertex -18.914293 -107.782013 67.383377
endloop
endfacet
facet normal -0.105528 0.220110 -0.969750
outer loop
vertex -23.155926 -119.180840 65.257690
vertex -37.588619 -119.177971 66.828903
vertex -18.914293 -107.782013 67.383377
endloop
endfacet
facet normal 0.659456 -0.191706 -0.726888
outer loop
vertex -40.879879 -112.610718 62.110947
vertex -33.329018 -99.618584 65.534866
vertex -37.588619 -119.177971 66.828903
endloop
endfacet
facet normal -0.633649 0.053428 -0.771774
outer loop
vertex 15.811295 -112.549461 54.225883
vertex 31.424765 -99.776405 42.291012
vertex 24.324814 -119.668633 46.743195
endloop
endfacet
facet normal 0.086208 0.615531 -0.783383
outer loop
vertex -3.573597 -132.872528 30.412403
vertex -7.939913 -125.809464 35.481579
vertex 19.062605 -127.677597 36.985241
endloop
endfacet
facet normal -0.528944 0.296175 -0.795298
outer loop
vertex -24.798664 -66.537033 79.229721
vertex -25.502279 -102.037552 66.477043
vertex -32.257938 -74.748253 81.132889
endloop
endfacet
facet normal 0.100154 0.104268 -0.989494
outer loop
vertex -13.552730 -115.923973 50.078243
vertex -19.249266 -97.014458 51.494251
vertex -6.204885 -107.917747 51.665627
endloop
endfacet
facet normal -0.220179 0.569266 -0.792122
outer loop
vertex 5.753705 -122.398643 49.943272
vertex 15.811295 -112.549461 54.225883
vertex 24.324814 -119.668633 46.743195
endloop
endfacet
facet normal -0.885255 -0.198009 0.420852
outer loop
vertex -29.433491 -73.625313 66.145447
vertex -27.187138 -96.869438 59.934357
vertex -24.798664 -66.537033 79.229721
endloop
endfacet
facet normal 0.744700 0.605296 0.281139
outer loop
vertex -6.852373 -132.248825 2.013601
vertex -12.212531 -125.396973 1.459809
vertex -16.711914 -123.517776 9.332097
endloop
endfacet
facet normal 0.255503 0.505766 -0.823965
outer loop
vertex -25.502279 -102.037552 66.477043
vertex -33.329018 -99.618584 65.534866
vertex -32.257938 -74.748253 81.132889
endloop
endfacet
facet normal 0.474398 0.579589 -0.662588
outer loop
vertex -6.852373 -132.248825 2.013601
vertex -5.828773 -121.011978 12.575763
vertex -0.012796 -128.688721 10.024751
endloop
endfacet
facet normal 0.064339 -0.934015 0.351391
outer loop
vertex -17.615469 -97.414955 10.046913
vertex -8.239281 -96.508087 10.740649
vertex -9.620724 -88.495247 32.292099
endloop
endfacet
facet normal 0.060866 0.680674 -0.730053
outer loop
vertex -5.828773 -121.011978 12.575763
vertex -6.852373 -132.248825 2.013601
vertex -16.711914 -123.517776 9.332097
endloop
endfacet
facet normal 0.888255 0.426277 0.171148
outer loop
vertex -3.573597 -132.872528 30.412403
vertex -5.828773 -121.011978 12.575763
vertex -7.939913 -125.809464 35.481579
endloop
endfacet
facet normal 0.809930 0.530432 0.250310
outer loop
vertex -0.012796 -128.688721 10.024751
vertex -5.828773 -121.011978 12.575763
vertex -3.573597 -132.872528 30.412403
endloop
endfacet
facet normal 0.679317 0.690877 -0.247422
outer loop
vertex -30.810917 -132.521408 48.178699
vertex -43.332455 -120.849144 46.392315
vertex -37.588619 -119.177971 66.828903
endloop
endfacet
facet normal 0.656882 0.602163 -0.453769
outer loop
vertex -18.143408 -111.252739 7.934616
vertex -31.954113 -101.742889 0.561848
vertex -21.766552 -103.907768 12.436656
endloop
endfacet
facet normal 0.497046 0.453293 -0.739913
outer loop
vertex -18.914293 -107.782013 67.383377
vertex -25.502279 -102.037552 66.477043
vertex -5.440557 -97.574951 82.687675
endloop
endfacet
facet normal 0.668981 0.722854 0.173051
outer loop
vertex -34.178326 -120.847496 41.262882
vertex -23.950367 -127.714096 30.406227
vertex -40.910412 -112.363380 31.848692
endloop
endfacet
facet normal 0.747548 -0.657863 0.091589
outer loop
vertex -32.257938 -74.748253 81.132889
vertex -29.433491 -73.625313 66.145447
vertex -24.798664 -66.537033 79.229721
endloop
endfacet
facet normal 0.923551 0.261037 -0.280915
outer loop
vertex -37.588619 -119.177971 66.828903
vertex -43.332455 -120.849144 46.392315
vertex -40.879879 -112.610718 62.110947
endloop
endfacet
facet normal 0.220141 -0.398004 -0.890579
outer loop
vertex -6.204885 -107.917747 51.665627
vertex -6.930527 -91.602486 44.194881
vertex 12.692790 -94.620483 50.394314
endloop
endfacet
facet normal 0.457732 -0.849850 0.261219
outer loop
vertex -6.202346 -80.691841 29.917208
vertex -4.085649 -86.038284 8.814024
vertex 0.915375 -81.972031 13.279919
endloop
endfacet
facet normal 0.973575 -0.149952 0.172239
outer loop
vertex -33.329018 -99.618584 65.534866
vertex -29.433491 -73.625313 66.145447
vertex -32.257938 -74.748253 81.132889
endloop
endfacet
facet normal 0.489246 -0.042155 -0.871127
outer loop
vertex -16.711914 -123.517776 9.332097
vertex -29.003586 -120.928795 2.303510
vertex -18.143408 -111.252739 7.934616
endloop
endfacet
facet normal 0.919937 -0.348070 0.180455
outer loop
vertex -9.620724 -88.495247 32.292099
vertex -4.085649 -86.038284 8.814024
vertex -6.202346 -80.691841 29.917208
endloop
endfacet
facet normal 0.924885 -0.333217 0.183175
outer loop
vertex -8.239281 -96.508087 10.740649
vertex -4.085649 -86.038284 8.814024
vertex -9.620724 -88.495247 32.292099
endloop
endfacet
facet normal -0.442892 -0.805949 -0.392801
outer loop
vertex 28.760714 -91.935585 29.207005
vertex 31.424765 -99.776405 42.291012
vertex 17.613287 -89.850594 37.497986
endloop
endfacet
facet normal 0.697894 -0.121172 0.705876
outer loop
vertex -33.329018 -99.618584 65.534866
vertex -27.187138 -96.869438 59.934357
vertex -29.433491 -73.625313 66.145447
endloop
endfacet
facet normal 0.579197 0.362464 0.730172
outer loop
vertex -14.117148 -84.445740 0.833908
vertex -17.615469 -97.414955 10.046913
vertex -11.665146 -90.907288 2.096466
endloop
endfacet
facet normal 0.439864 -0.595922 -0.671861
outer loop
vertex -4.085649 -86.038284 8.814024
vertex -17.615469 -97.414955 10.046913
vertex -14.117148 -84.445740 0.833908
endloop
endfacet
facet normal 0.464386 -0.823313 -0.326346
outer loop
vertex -31.954113 -101.742889 0.561848
vertex -11.665146 -90.907288 2.096466
vertex -17.615469 -97.414955 10.046913
endloop
endfacet
facet normal 0.613836 -0.478398 -0.627966
outer loop
vertex -5.440557 -97.574951 82.687675
vertex -25.502279 -102.037552 66.477043
vertex 3.616008 -85.205833 82.117393
endloop
endfacet
facet normal -0.171157 -0.688010 0.705229
outer loop
vertex 3.616008 -85.205833 82.117393
vertex -18.975439 -101.305832 60.927578
vertex 1.639785 -95.905975 71.198860
endloop
endfacet
facet normal 0.973346 -0.223410 0.051826
outer loop
vertex -39.286228 -101.805084 46.859554
vertex -40.910412 -112.363380 31.848692
vertex -37.360176 -97.752510 28.155891
endloop
endfacet
facet normal -0.356058 -0.775712 -0.521051
outer loop
vertex -18.975439 -101.305832 60.927578
vertex -25.502279 -102.037552 66.477043
vertex -27.187138 -96.869438 59.934357
endloop
endfacet
facet normal -0.006481 -0.647558 -0.761989
outer loop
vertex 10.605191 -81.808083 30.722858
vertex 17.613287 -89.850594 37.497986
vertex -6.202346 -80.691841 29.917208
endloop
endfacet
facet normal -0.412730 -0.791751 -0.450316
outer loop
vertex 17.613287 -89.850594 37.497986
vertex 31.424765 -99.776405 42.291012
vertex 12.692790 -94.620483 50.394314
endloop
endfacet
facet normal -0.407001 -0.835834 -0.368419
outer loop
vertex -19.249266 -97.014458 51.494251
vertex -18.975439 -101.305832 60.927578
vertex -27.187138 -96.869438 59.934357
endloop
endfacet
facet normal 0.187662 -0.913616 -0.360677
outer loop
vertex -25.311680 -89.449768 29.178051
vertex -6.930527 -91.602486 44.194881
vertex -19.249266 -97.014458 51.494251
endloop
endfacet
facet normal 0.158981 -0.350536 -0.922957
outer loop
vertex 17.613287 -89.850594 37.497986
vertex -9.620724 -88.495247 32.292099
vertex -6.202346 -80.691841 29.917208
endloop
endfacet
facet normal -0.327612 -0.405359 -0.853437
outer loop
vertex -6.930527 -91.602486 44.194881
vertex -6.204885 -107.917747 51.665627
vertex -19.249266 -97.014458 51.494251
endloop
endfacet
facet normal 0.297072 -0.876874 -0.377943
outer loop
vertex -39.286228 -101.805084 46.859554
vertex -25.311680 -89.449768 29.178051
vertex -19.249266 -97.014458 51.494251
endloop
endfacet
facet normal 0.186092 -0.963675 0.191576
outer loop
vertex -27.187138 -96.869438 59.934357
vertex -39.286228 -101.805084 46.859554
vertex -19.249266 -97.014458 51.494251
endloop
endfacet
facet normal -0.423758 -0.883278 0.200621
outer loop
vertex 42.142151 -102.572670 19.368658
vertex 32.779659 -98.681412 16.725018
vertex 41.860439 -104.963562 8.247225
endloop
endfacet
facet normal 0.394536 -0.918699 -0.018290
outer loop
vertex -33.329018 -99.618584 65.534866
vertex -39.286228 -101.805084 46.859554
vertex -27.187138 -96.869438 59.934357
endloop
endfacet
facet normal -0.018684 -0.925665 0.377882
outer loop
vertex -25.311680 -89.449768 29.178051
vertex -17.615469 -97.414955 10.046913
vertex -9.620724 -88.495247 32.292099
endloop
endfacet
facet normal 0.570238 -0.813041 -0.117442
outer loop
vertex -39.286228 -101.805084 46.859554
vertex -37.360176 -97.752510 28.155891
vertex -25.311680 -89.449768 29.178051
endloop
endfacet
facet normal -0.357843 -0.891624 0.277408
outer loop
vertex 17.871058 -97.214394 2.208879
vertex 41.860439 -104.963562 8.247225
vertex 32.779659 -98.681412 16.725018
endloop
endfacet
facet normal -0.481934 -0.873759 0.065466
outer loop
vertex 10.605191 -81.808083 30.722858
vertex 19.893946 -88.907494 4.348652
vertex 28.760714 -91.935585 29.207005
endloop
endfacet
facet normal 0.394685 -0.652398 0.646994
outer loop
vertex -25.311680 -89.449768 29.178051
vertex -37.360176 -97.752510 28.155891
vertex -21.766552 -103.907768 12.436656
endloop
endfacet
facet normal -0.271612 -0.949046 0.159805
outer loop
vertex 0.915375 -81.972031 13.279919
vertex 19.893946 -88.907494 4.348652
vertex 10.605191 -81.808083 30.722858
endloop
endfacet
facet normal 0.031224 -0.756214 0.653578
outer loop
vertex -4.085649 -86.038284 8.814024
vertex 19.893946 -88.907494 4.348652
vertex 0.915375 -81.972031 13.279919
endloop
endfacet
facet normal 0.352736 -0.887036 0.297901
outer loop
vertex -25.502279 -102.037552 66.477043
vertex -18.975439 -101.305832 60.927578
vertex 3.616008 -85.205833 82.117393
endloop
endfacet
facet normal 0.007540 0.053110 0.998560
outer loop
vertex 6.896904 -108.334099 2.883163
vertex 17.871058 -97.214394 2.208879
vertex -11.665146 -90.907288 2.096466
endloop
endfacet
facet normal 0.018341 -0.940002 -0.340675
outer loop
vertex -9.620724 -88.495247 32.292099
vertex 17.613287 -89.850594 37.497986
vertex 12.692790 -94.620483 50.394314
endloop
endfacet
facet normal 0.112613 -0.954904 -0.274732
outer loop
vertex -25.311680 -89.449768 29.178051
vertex -9.620724 -88.495247 32.292099
vertex -6.930527 -91.602486 44.194881
endloop
endfacet
facet normal 0.564399 -0.577829 -0.589549
outer loop
vertex -21.766552 -103.907768 12.436656
vertex -31.954113 -101.742889 0.561848
vertex -17.615469 -97.414955 10.046913
endloop
endfacet
facet normal -0.068454 -0.996528 0.047394
outer loop
vertex -6.202346 -80.691841 29.917208
vertex 0.915375 -81.972031 13.279919
vertex 10.605191 -81.808083 30.722858
endloop
endfacet
facet normal 0.466314 -0.008588 -0.884578
outer loop
vertex -18.143408 -111.252739 7.934616
vertex -29.003586 -120.928795 2.303510
vertex -31.954113 -101.742889 0.561848
endloop
endfacet
facet normal -0.131985 -0.023156 0.990981
outer loop
vertex -6.852373 -132.248825 2.013601
vertex -7.729636 -114.720116 2.306352
vertex -12.212531 -125.396973 1.459809
endloop
endfacet
facet normal -0.458521 0.343112 0.819776
outer loop
vertex 20.070738 -117.685608 1.384457
vertex 29.709293 -119.556557 7.558598
vertex 41.860439 -104.963562 8.247225
endloop
endfacet
facet normal -0.263876 -0.067105 0.962220
outer loop
vertex 20.070738 -117.685608 1.384457
vertex 41.860439 -104.963562 8.247225
vertex 17.871058 -97.214394 2.208879
endloop
endfacet
facet normal 0.408315 0.549574 0.728867
outer loop
vertex -43.332455 -120.849144 46.392315
vertex -30.810917 -132.521408 48.178699
vertex -34.178326 -120.847496 41.262882
endloop
endfacet
facet normal 0.650381 0.688389 0.321132
outer loop
vertex -40.910412 -112.363380 31.848692
vertex -23.950367 -127.714096 30.406227
vertex -31.508116 -115.027512 18.517385
endloop
endfacet
facet normal 0.661599 -0.181778 0.727492
outer loop
vertex -21.766552 -103.907768 12.436656
vertex -37.360176 -97.752510 28.155891
vertex -31.508116 -115.027512 18.517385
endloop
endfacet
facet normal -0.074418 -0.968874 -0.236106
outer loop
vertex 12.692790 -94.620483 50.394314
vertex -6.930527 -91.602486 44.194881
vertex -9.620724 -88.495247 32.292099
endloop
endfacet
facet normal -0.124979 0.272267 0.954071
outer loop
vertex -6.852373 -132.248825 2.013601
vertex 19.242226 -124.980484 3.357686
vertex 20.070738 -117.685608 1.384457
endloop
endfacet
facet normal 0.436402 0.739833 0.512055
outer loop
vertex -23.950367 -127.714096 30.406227
vertex -17.014002 -123.913467 19.003414
vertex -31.508116 -115.027512 18.517385
endloop
endfacet
facet normal 0.180774 0.345238 0.920940
outer loop
vertex -31.508116 -115.027512 18.517385
vertex -17.014002 -123.913467 19.003414
vertex -21.766552 -103.907768 12.436656
endloop
endfacet
facet normal -0.040338 0.002140 0.999184
outer loop
vertex -7.729636 -114.720116 2.306352
vertex 6.896904 -108.334099 2.883163
vertex -11.665146 -90.907288 2.096466
endloop
endfacet
facet normal 0.018737 -0.132428 0.991015
outer loop
vertex -7.729636 -114.720116 2.306352
vertex 20.070738 -117.685608 1.384457
vertex 6.896904 -108.334099 2.883163
endloop
endfacet
facet normal 0.076944 0.101868 0.991818
outer loop
vertex -12.212531 -125.396973 1.459809
vertex -31.954113 -101.742889 0.561848
vertex -29.003586 -120.928795 2.303510
endloop
endfacet
facet normal -0.073628 -0.003378 0.997280
outer loop
vertex -31.954113 -101.742889 0.561848
vertex -7.729636 -114.720116 2.306352
vertex -11.665146 -90.907288 2.096466
endloop
endfacet
facet normal -0.054231 -0.236676 0.970074
outer loop
vertex -11.665146 -90.907288 2.096466
vertex 17.871058 -97.214394 2.208879
vertex 19.893946 -88.907494 4.348652
endloop
endfacet
facet normal -0.080435 0.161660 0.983563
outer loop
vertex -14.117148 -84.445740 0.833908
vertex -11.665146 -90.907288 2.096466
vertex 19.893946 -88.907494 4.348652
endloop
endfacet
facet normal -0.092987 -0.039839 0.994870
outer loop
vertex -31.954113 -101.742889 0.561848
vertex -12.212531 -125.396973 1.459809
vertex -7.729636 -114.720116 2.306352
endloop
endfacet
facet normal 0.091778 -0.030222 0.995321
outer loop
vertex 20.070738 -117.685608 1.384457
vertex 17.871058 -97.214394 2.208879
vertex 6.896904 -108.334099 2.883163
endloop
endfacet
facet normal 0.920347 0.300718 0.250060
outer loop
vertex -17.014002 -123.913467 19.003414
vertex -18.143408 -111.252739 7.934616
vertex -21.766552 -103.907768 12.436656
endloop
endfacet
facet normal 0.031529 -0.015113 0.999389
outer loop
vertex 20.070738 -117.685608 1.384457
vertex -7.729636 -114.720116 2.306352
vertex -6.852373 -132.248825 2.013601
endloop
endfacet
endsolid Exported from Blender-3.4.1
